<svg width="76" height="76" viewBox="0 0 76 76" fill="none" xmlns="http://www.w3.org/2000/svg">
<circle cx="38" cy="38" r="38" fill="#F5F5F5"/>
<path d="M43.4414 48.3546C43.7992 47.9458 44 47.3928 44 46.8164C44 46.24 43.7992 45.687 43.4414 45.2782L36.6409 37.4455L43.4414 29.7218C43.7992 29.313 44 28.76 44 28.1836C44 27.6072 43.7992 27.0542 43.4414 26.6454C43.2628 26.4409 43.0503 26.2786 42.8162 26.1678C42.5821 26.057 42.331 26 42.0774 26C41.8238 26 41.5727 26.057 41.3386 26.1678C41.1045 26.2786 40.8921 26.4409 40.7135 26.6454L32.5682 35.8964C32.3882 36.0992 32.2453 36.3405 32.1477 36.6064C32.0502 36.8722 32 37.1574 32 37.4455C32 37.7335 32.0502 38.0187 32.1477 38.2845C32.2453 38.5504 32.3882 38.7917 32.5682 38.9946L40.7135 48.3546C40.8921 48.5591 41.1045 48.7214 41.3386 48.8322C41.5727 48.943 41.8238 49 42.0774 49C42.331 49 42.5821 48.943 42.8162 48.8322C43.0503 48.7214 43.2628 48.5591 43.4414 48.3546Z" fill="black"/>
</svg>
